<?xml version="1.0" encoding="UTF-8"?>
<svg width="22.406" height="17.546" version="1.1" viewBox="0 0 22.406 17.546" xmlns="http://www.w3.org/2000/svg" xmlns:cc="http://creativecommons.org/ns#" xmlns:dc="http://purl.org/dc/elements/1.1/" xmlns:rdf="http://www.w3.org/1999/02/22-rdf-syntax-ns#">
 <metadata>
  <rdf:RDF>
   <cc:Work rdf:about="">
    <dc:format>image/svg+xml</dc:format>
    <dc:type rdf:resource="http://purl.org/dc/dcmitype/StillImage"/>
    <dc:title/>
   </cc:Work>
  </rdf:RDF>
 </metadata>
 <g shape-rendering="auto" stroke="#000" stroke-linecap="round" stroke-linejoin="round">
  <path d="m17.271 6.5669c-0.18873 0.00801-0.39776 0.049673-0.5544 0.015695l-13.848 0.00775c-1.1927 0.75222-1.7598 1.5332-2.4691 2.6641 0.013376 1.7297-0.021186 3.4653 0.023316 5.192 0.40223 1.1469 1.154 1.889 2.3775 2.6742 1.3625 0.05221 2.744 0.0039 4.1133 0.01824 3.567-0.01064 7.1383 0.01354 10.702-0.01885 0.18124-0.34136 0.04414-0.77722 0.08622-1.1595l-0.0051-9.2143c-0.07067-0.16295-0.23804-0.18727-0.42677-0.17933z" color="#000000" color-rendering="auto" dominant-baseline="auto" fill="none" image-rendering="auto" solid-color="#000000" stroke-width=".8" style="font-feature-settings:normal;font-variant-alternates:normal;font-variant-caps:normal;font-variant-ligatures:normal;font-variant-numeric:normal;font-variant-position:normal;isolation:auto;mix-blend-mode:normal;shape-padding:0;text-decoration-color:#000000;text-decoration-line:none;text-decoration-style:solid;text-indent:0;text-orientation:mixed;text-transform:none;white-space:normal"/>
  <path d="m2.6908 11.057c-0.93324 0.0076-1.1955 1.2906-0.42117 1.6872 0.59312 0.35542 1.3598-0.19716 1.3049-0.78884-0.30556-0.099052-0.61671-0.61819-0.91623-0.26325 0.25209-5.27e-4 0.53797 0.26157 0.79005 0.26097 0.36038-0.20381-0.27714-0.97925-0.75761-0.89614z" color="#000000" color-rendering="auto" dominant-baseline="auto" image-rendering="auto" solid-color="#000000" stroke-width=".69234" style="font-feature-settings:normal;font-variant-alternates:normal;font-variant-caps:normal;font-variant-ligatures:normal;font-variant-numeric:normal;font-variant-position:normal;isolation:auto;mix-blend-mode:normal;shape-padding:0;text-decoration-color:#000000;text-decoration-line:none;text-decoration-style:solid;text-indent:0;text-orientation:mixed;text-transform:none;white-space:normal"/>
  <path d="m19.348 0.38073c-5.1593 0.60645-10.338 1.1827-15.5 1.7966-1.134 1.103-1.3533 1.9162-1.3684 2.8713 0.063105 0.19205 0.00178-0.010231 0 0 0.25145-1.6751 0.21066-1.6703 1.3684-2.8713l15.396-1.6177c0.22147 2.2233 0.41542 4.5263 0.63435 6.7494 0.07574 0.7707 0.21287 1.6228 0.28856 2.3935-0.28721-0.02746-0.8999-0.00657-0.6415 0.24736 0 0 0.72327 0.061872 0.88577-0.14778-0.1804-2.1955-0.42288-4.3954-0.62959-6.5922-0.10344-0.92003-0.15606-1.8522-0.29023-2.7652-0.02969-0.044837-0.08649-0.068709-0.14311-0.064053z" color="#000000" color-rendering="auto" dominant-baseline="auto" image-rendering="auto" solid-color="#000000" stroke-width=".76" style="font-feature-settings:normal;font-variant-alternates:normal;font-variant-caps:normal;font-variant-ligatures:normal;font-variant-numeric:normal;font-variant-position:normal;isolation:auto;mix-blend-mode:normal;shape-padding:0;text-decoration-color:#000000;text-decoration-line:none;text-decoration-style:solid;text-indent:0;text-orientation:mixed;text-transform:none;white-space:normal"/>
 </g>
</svg>
