<?xml version="1.0" encoding="UTF-8"?>
<svg width="22.406" height="17.546" version="1.1" viewBox="0 0 22.406 17.546" xmlns="http://www.w3.org/2000/svg" xmlns:cc="http://creativecommons.org/ns#" xmlns:dc="http://purl.org/dc/elements/1.1/" xmlns:rdf="http://www.w3.org/1999/02/22-rdf-syntax-ns#">
 <metadata>
  <rdf:RDF>
   <cc:Work rdf:about="">
    <dc:format>image/svg+xml</dc:format>
    <dc:type rdf:resource="http://purl.org/dc/dcmitype/StillImage"/>
    <dc:title/>
   </cc:Work>
  </rdf:RDF>
 </metadata>
 <g transform="translate(.092245 .092245)" shape-rendering="auto" stroke="#000" stroke-linecap="round" stroke-linejoin="round">
  <path d="m17.271 6.5669c-0.18873 0.00801-0.39776 0.049673-0.5544 0.015695l-13.848 0.00775c-1.1927 0.75222-1.7598 1.5332-2.4691 2.6641 0.013376 1.7297-0.021186 3.4653 0.023316 5.192 0.40223 1.1469 1.154 1.889 2.3775 2.6742 1.3625 0.05221 2.744 0.0039 4.1133 0.01824 3.567-0.01064 7.1383 0.01354 10.702-0.01885 0.18124-0.34136 0.04414-0.77722 0.08622-1.1595l-0.0051-9.2143c-0.07067-0.16295-0.23804-0.18727-0.42677-0.17933z" color="#000000" color-rendering="auto" dominant-baseline="auto" fill="none" image-rendering="auto" solid-color="#000000" stroke-width=".9" style="font-feature-settings:normal;font-variant-alternates:normal;font-variant-caps:normal;font-variant-ligatures:normal;font-variant-numeric:normal;font-variant-position:normal;isolation:auto;mix-blend-mode:normal;shape-padding:0;text-decoration-color:#000000;text-decoration-line:none;text-decoration-style:solid;text-indent:0;text-orientation:mixed;text-transform:none;white-space:normal"/>
  <path d="m2.6908 11.057c-0.93324 0.0076-1.1955 1.2906-0.42117 1.6872 0.59312 0.35542 1.3598-0.19716 1.3049-0.78884-0.30556-0.09905-0.61671-0.61819-0.91623-0.26325 0.25209-5.27e-4 0.53797 0.26157 0.79005 0.26097 0.36038-0.20381-0.27714-0.97925-0.75761-0.89614z" color="#000000" color-rendering="auto" dominant-baseline="auto" image-rendering="auto" solid-color="#000000" stroke-width=".95" style="font-feature-settings:normal;font-variant-alternates:normal;font-variant-caps:normal;font-variant-ligatures:normal;font-variant-numeric:normal;font-variant-position:normal;isolation:auto;mix-blend-mode:normal;shape-padding:0;text-decoration-color:#000000;text-decoration-line:none;text-decoration-style:solid;text-indent:0;text-orientation:mixed;text-transform:none;white-space:normal"/>
  <path d="m19.348 0.38073c-5.1593 0.60645-10.338 1.1827-15.5 1.7966-1.134 1.103-1.3533 1.9162-1.3684 2.8713-0.075262 0.1344 0.16143 0.046122 0.16143 0.046122 0.25145-1.6751 0.39515-1.4627 1.4376-2.6868l15.165-1.8483c0.22147 2.2233 0.41542 4.5263 0.63435 6.7494 0.07574 0.7707 0.21287 1.6228 0.28856 2.3935-0.28721-0.02746-0.8999-0.00657-0.6415 0.24736 0 0 0.72327 0.061872 0.88577-0.14778-0.1804-2.1955-0.42288-4.3954-0.62959-6.5922-0.10344-0.92003-0.15606-1.8522-0.29023-2.7652-0.02969-0.044837-0.08649-0.068709-0.14311-0.064053z" color="#000000" color-rendering="auto" dominant-baseline="auto" image-rendering="auto" solid-color="#000000" stroke-width=".7" style="font-feature-settings:normal;font-variant-alternates:normal;font-variant-caps:normal;font-variant-ligatures:normal;font-variant-numeric:normal;font-variant-position:normal;isolation:auto;mix-blend-mode:normal;shape-padding:0;text-decoration-color:#000000;text-decoration-line:none;text-decoration-style:solid;text-indent:0;text-orientation:mixed;text-transform:none;white-space:normal"/>
 </g>
 <g transform="rotate(-6.5733 -54.287 -9.0815)" fill="none" fill-rule="evenodd">
  <path d="m0 0h22v22h-22z"/>
  <path d="m42.847 21.795 1.0159 0.01646 0.1853-11.438 0.99987 0.0162-0.1853 11.438a1.02 1.02 0 0 1-0.3088 0.72609 0.943 0.943 0 0 1-0.70791 0.29757l-1.4998-0.0243c-0.28097-0.0045-0.51513-0.18137-0.70148-0.53143l-0.28154-0.52463-2.0038-4.5991a3.891 3.891 0 0 1-1.0229 0.90955 6.536 6.536 0 0 1-1.2197 0.59032 6.431 6.431 0 0 1-1.2172 0.31332 6.209 6.209 0 0 1-0.99344 0.08092l-2.4997-0.0405c-0.41694-0.0068-0.8307-0.14848-1.2433-0.42619a4.43 4.43 0 0 1-1.1075-1.0911 5.961 5.961 0 0 1-0.78855-1.516 4.82 4.82 0 0 1-0.28445-1.7028c0.0093-0.57392 0.12246-1.1382 0.34046-1.6927a5.819 5.819 0 0 1 0.8361-1.4817c0.34007-0.43355 0.7208-0.78443 1.1422-1.0546 0.42142-0.26921 0.8396-0.40045 1.2565-0.3937l2.4997 0.040494c0.30196 0.00489 0.6504 0.04254 1.0453 0.11495a6.59 6.59 0 0 1 1.2046 0.34356 5.86 5.86 0 0 1 1.1781 0.62116 4.13 4.13 0 0 1 0.97713 0.92595l0.63229-1.3709 0.99566 0.27616-0.72818 1.5484a1.045 1.045 0 0 1-0.32654 0.40076 0.958 0.958 0 0 1-0.4801 0.18725c-0.17714 0.0071-0.3437-0.02162-0.49861-0.09009a1.03 1.03 0 0 1-0.40096-0.31454c-0.40781-0.57068-0.99228-0.9782-1.7544-1.2236-0.76112-0.24536-1.3822-0.37144-1.8611-0.3792l-2.4997-0.0405c-0.26997-0.0043-0.55368 0.09904-0.84915 0.31129a3.757 3.757 0 0 0-0.81745 0.82387 4.941 4.941 0 0 0-0.62874 1.152 3.744 3.744 0 0 0-0.26328 1.3119c-0.0072 0.44394 0.06569 0.88418 0.22065 1.3197a4.932 4.932 0 0 0 0.59797 1.1798 3.65 3.65 0 0 0 0.79934 0.85006c0.28854 0.2157 0.56279 0.32616 0.82276 0.33037l2.4997 0.0405c0.48994 0.0079 1.1169-0.10893 1.8809-0.35158 0.76401-0.24166 1.3594-0.63106 1.7851-1.1652a0.969 0.969 0 0 1 1.37-0.17281c0.13823 0.11025 0.24303 0.24697 0.31338 0.41113l2.0038 4.5991a1.041 1.041 0 0 0 0.15264 0.27051c0.08114 0.11533 0.2202 0.17459 0.41817 0.1778zm-0.74965-14.474a0.48 0.48 0 0 1 0.15368-0.34956 0.48 0.48 0 0 1 0.35435-0.14228 0.48 0.48 0 0 1 0.34956 0.15368 0.48 0.48 0 0 1 0.14228 0.35435l-0.0243 1.4998 1.4998 0.024297a0.48 0.48 0 0 1 0.34956 0.15368 0.48 0.48 0 0 1 0.14228 0.35435 0.48 0.48 0 0 1-0.15368 0.34956 0.48 0.48 0 0 1-0.35435 0.14228l-1.4998-0.024296-0.0243 1.4998a0.48 0.48 0 0 1-0.15368 0.34956 0.48 0.48 0 0 1-0.35435 0.14228 0.48 0.48 0 0 1-0.34956-0.15368 0.48 0.48 0 0 1-0.14228-0.35435l0.0243-1.4998-1.4998-0.024297a0.48 0.48 0 0 1-0.34956-0.15368 0.48 0.48 0 0 1-0.14228-0.35435 0.48 0.48 0 0 1 0.15368-0.34956 0.48 0.48 0 0 1 0.35435-0.14228l1.4998 0.024297z" fill="#8b9396"/>
 </g>
</svg>
