<?xml version="1.0" encoding="UTF-8"?>
<svg width="22" height="22" version="1.1" viewBox="0 0 22 22" xmlns="http://www.w3.org/2000/svg" xmlns:cc="http://creativecommons.org/ns#" xmlns:dc="http://purl.org/dc/elements/1.1/" xmlns:rdf="http://www.w3.org/1999/02/22-rdf-syntax-ns#">
 <metadata>
  <rdf:RDF>
   <cc:Work rdf:about="">
    <dc:format>image/svg+xml</dc:format>
    <dc:type rdf:resource="http://purl.org/dc/dcmitype/StillImage"/>
    <dc:title/>
   </cc:Work>
  </rdf:RDF>
 </metadata>
 <g transform="translate(.2011 5.3733)" shape-rendering="auto" stroke="#000" stroke-linecap="round" stroke-linejoin="round">
  <path d="m18.201 3.7596c-0.19826 0.00827-0.41784 0.051314-0.58239 0.016213l-14.547 0.00801c-1.2529 0.77706-1.8486 1.5838-2.5937 2.7521 0.014051 1.7868-0.022256 3.5797 0.024493 5.3635 0.42254 1.1848 1.2123 1.9514 2.4975 2.7625 1.4313 0.05394 2.8825 4e-3 4.3209 0.01884 3.7471-0.01099 7.4987 0.01398 11.242-0.01947 0.19039-0.35263 0.04637-0.80289 0.09058-1.1978l-0.0053-9.5186c-0.0743-0.16834-0.25012-0.19346-0.44838-0.18526z" color="#000000" color-rendering="auto" dominant-baseline="auto" fill="none" image-rendering="auto" solid-color="#000000" stroke-linecap="round" stroke-linejoin="round" style="font-feature-settings:normal;font-variant-alternates:normal;font-variant-caps:normal;font-variant-ligatures:normal;font-variant-numeric:normal;font-variant-position:normal;isolation:auto;mix-blend-mode:normal;shape-padding:0;text-decoration-color:#000000;text-decoration-line:none;text-decoration-style:solid;text-indent:0;text-orientation:mixed;text-transform:none;white-space:normal"/>
  <path d="m2.9517 8.5784c-0.93324 0.0076-1.1955 1.2906-0.42117 1.6872 0.59312 0.35542 1.3598-0.19716 1.3049-0.78884-0.30556-0.09905-0.61671-0.61819-0.91623-0.26325 0.25209-5.27e-4 0.53797 0.26157 0.79005 0.26097 0.36038-0.20381-0.27714-0.97925-0.75761-0.89614z" color="#000000" color-rendering="auto" dominant-baseline="auto" image-rendering="auto" solid-color="#000000" stroke-width=".85" style="font-feature-settings:normal;font-variant-alternates:normal;font-variant-caps:normal;font-variant-ligatures:normal;font-variant-numeric:normal;font-variant-position:normal;isolation:auto;mix-blend-mode:normal;shape-padding:0;text-decoration-color:#000000;text-decoration-line:none;text-decoration-style:solid;text-indent:0;text-orientation:mixed;text-transform:none;white-space:normal"/>
  <path d="m20.383-2.6309c-5.4198 0.62648-10.86 1.2218-16.282 1.8559-1.1912 1.1394-1.4216 1.9795-1.4375 2.9661-0.079061 0.13884 0.16958 0.047645 0.16958 0.047645 0.26414-1.7304 0.4151-1.5111 1.5102-2.7755l15.931-1.9093c0.23265 2.2967 0.43639 4.6758 0.66637 6.9723 0.07956 0.79615 0.22362 1.6764 0.30313 2.4725-0.30171-0.028366-0.94533-0.00679-0.67388 0.25553 0 0 0.75978 0.063916 0.93049-0.15266-0.18951-2.268-0.44423-4.5406-0.66137-6.8099-0.10866-0.95041-0.16394-1.9134-0.30488-2.8565-0.03119-0.046317-0.09086-0.070978-0.15033-0.066168z" color="#000000" color-rendering="auto" dominant-baseline="auto" image-rendering="auto" solid-color="#000000" stroke-width=".85" style="font-feature-settings:normal;font-variant-alternates:normal;font-variant-caps:normal;font-variant-ligatures:normal;font-variant-numeric:normal;font-variant-position:normal;isolation:auto;mix-blend-mode:normal;shape-padding:0;text-decoration-color:#000000;text-decoration-line:none;text-decoration-style:solid;text-indent:0;text-orientation:mixed;text-transform:none;white-space:normal"/>
 </g>
 <g transform="rotate(-6.5733 -15.507 -6.8545)" fill="none" fill-rule="evenodd">
  <path d="m0 0h22v22h-22z"/>
  <path d="m42.847 21.795 1.0159 0.01646 0.1853-11.438 0.99987 0.0162-0.1853 11.438a1.02 1.02 0 0 1-0.3088 0.72609 0.943 0.943 0 0 1-0.70791 0.29757l-1.4998-0.0243c-0.28097-0.0045-0.51513-0.18137-0.70148-0.53143l-0.28154-0.52463-2.0038-4.5991a3.891 3.891 0 0 1-1.0229 0.90955 6.536 6.536 0 0 1-1.2197 0.59032 6.431 6.431 0 0 1-1.2172 0.31332 6.209 6.209 0 0 1-0.99344 0.08092l-2.4997-0.0405c-0.41694-0.0068-0.8307-0.14848-1.2433-0.42619a4.43 4.43 0 0 1-1.1075-1.0911 5.961 5.961 0 0 1-0.78855-1.516 4.82 4.82 0 0 1-0.28445-1.7028c0.0093-0.57392 0.12246-1.1382 0.34046-1.6927a5.819 5.819 0 0 1 0.8361-1.4817c0.34007-0.43355 0.7208-0.78443 1.1422-1.0546 0.42142-0.26921 0.8396-0.40045 1.2565-0.3937l2.4997 0.040494c0.30196 0.00489 0.6504 0.04254 1.0453 0.11495a6.59 6.59 0 0 1 1.2046 0.34356 5.86 5.86 0 0 1 1.1781 0.62116 4.13 4.13 0 0 1 0.97713 0.92595l0.63229-1.3709 0.99566 0.27616-0.72818 1.5484a1.045 1.045 0 0 1-0.32654 0.40076 0.958 0.958 0 0 1-0.4801 0.18725c-0.17714 0.0071-0.3437-0.02162-0.49861-0.09009a1.03 1.03 0 0 1-0.40096-0.31454c-0.40781-0.57068-0.99228-0.9782-1.7544-1.2236-0.76112-0.24536-1.3822-0.37144-1.8611-0.3792l-2.4997-0.0405c-0.26997-0.0043-0.55368 0.09904-0.84915 0.31129a3.757 3.757 0 0 0-0.81745 0.82387 4.941 4.941 0 0 0-0.62874 1.152 3.744 3.744 0 0 0-0.26328 1.3119c-0.0072 0.44394 0.06569 0.88418 0.22065 1.3197a4.932 4.932 0 0 0 0.59797 1.1798 3.65 3.65 0 0 0 0.79934 0.85006c0.28854 0.2157 0.56279 0.32616 0.82276 0.33037l2.4997 0.0405c0.48994 0.0079 1.1169-0.10893 1.8809-0.35158 0.76401-0.24166 1.3594-0.63106 1.7851-1.1652a0.969 0.969 0 0 1 1.37-0.17281c0.13823 0.11025 0.24303 0.24697 0.31338 0.41113l2.0038 4.5991a1.041 1.041 0 0 0 0.15264 0.27051c0.08114 0.11533 0.2202 0.17459 0.41817 0.1778zm-0.74965-14.474a0.48 0.48 0 0 1 0.15368-0.34956 0.48 0.48 0 0 1 0.35435-0.14228 0.48 0.48 0 0 1 0.34956 0.15368 0.48 0.48 0 0 1 0.14228 0.35435l-0.0243 1.4998 1.4998 0.024297a0.48 0.48 0 0 1 0.34956 0.15368 0.48 0.48 0 0 1 0.14228 0.35435 0.48 0.48 0 0 1-0.15368 0.34956 0.48 0.48 0 0 1-0.35435 0.14228l-1.4998-0.024296-0.0243 1.4998a0.48 0.48 0 0 1-0.15368 0.34956 0.48 0.48 0 0 1-0.35435 0.14228 0.48 0.48 0 0 1-0.34956-0.15368 0.48 0.48 0 0 1-0.14228-0.35435l0.0243-1.4998-1.4998-0.024297a0.48 0.48 0 0 1-0.34956-0.15368 0.48 0.48 0 0 1-0.14228-0.35435 0.48 0.48 0 0 1 0.15368-0.34956 0.48 0.48 0 0 1 0.35435-0.14228l1.4998 0.024297z" fill="#8b9396"/>
 </g>
</svg>
