<?xml version="1.0" encoding="UTF-8"?>
<svg width="22" height="22" version="1.1" viewBox="0 0 22 22" xmlns="http://www.w3.org/2000/svg" xmlns:cc="http://creativecommons.org/ns#" xmlns:dc="http://purl.org/dc/elements/1.1/" xmlns:rdf="http://www.w3.org/1999/02/22-rdf-syntax-ns#">
 <metadata>
  <rdf:RDF>
   <cc:Work rdf:about="">
    <dc:format>image/svg+xml</dc:format>
    <dc:type rdf:resource="http://purl.org/dc/dcmitype/StillImage"/>
    <dc:title/>
   </cc:Work>
  </rdf:RDF>
 </metadata>
 <g transform="matrix(1.4364 0 0 1.3814 18.271 -.65254)" fill="none" fill-rule="evenodd">
  <path d="m0 0h22v22h-22z"/>
  <path d="m18.063 9.08c0.224 0.038 0.437 0.148 0.637 0.329 0.2 0.18 0.3 0.403 0.3 0.666v0.938c0 0.254-0.1 0.459-0.3 0.615s-0.413 0.264-0.637 0.322l-1.216 0.293a6.84 6.84 0 0 1-0.154 0.418 4.008 4.008 0 0 1-0.183 0.388l0.644 1.084c0.127 0.195 0.205 0.42 0.235 0.674a0.766 0.766 0 0 1-0.235 0.659l-0.659 0.659a0.847 0.847 0 0 1-0.674 0.256 1.38 1.38 0 0 1-0.688-0.212l-1.055-0.674a7.697 7.697 0 0 1-0.41 0.19 4.595 4.595 0 0 1-0.44 0.162l-0.263 1.216a1.29 1.29 0 0 1-0.33 0.637c-0.18 0.2-0.403 0.3-0.666 0.3h-0.938a0.743 0.743 0 0 1-0.615-0.3 1.749 1.749 0 0 1-0.322-0.637l-0.294-1.203a6.001 6.001 0 0 1-0.469-0.168 4.816 4.816 0 0 1-0.454-0.213l-1.084 0.689a1.308 1.308 0 0 1-0.681 0.212 0.813 0.813 0 0 1-0.667-0.256l-0.674-0.66a0.785 0.785 0 0 1-0.22-0.658c0.03-0.254 0.103-0.479 0.22-0.674l0.689-1.143a8.068 8.068 0 0 1-0.169-0.359 3.029 3.029 0 0 1-0.139-0.388l-1.215-0.293a1.749 1.749 0 0 1-0.638-0.322 0.743 0.743 0 0 1-0.3-0.615v-0.938c0-0.263 0.1-0.486 0.3-0.666 0.2-0.181 0.413-0.29 0.638-0.33l1.2-0.264a3.44 3.44 0 0 1 0.147-0.41c0.059-0.136 0.117-0.268 0.176-0.395l-0.689-1.143a1.664 1.664 0 0 1-0.22-0.674 0.785 0.785 0 0 1 0.22-0.659l0.674-0.659a0.813 0.813 0 0 1 0.667-0.256c0.268 0.014 0.495 0.085 0.68 0.212l1.085 0.689a5.325 5.325 0 0 1 0.908-0.381l0.308-1.202a1.58 1.58 0 0 1 0.307-0.637 0.76 0.76 0 0 1 0.63-0.3h0.938c0.263 0 0.483 0.1 0.659 0.3s0.288 0.408 0.337 0.623l0.264 1.23a6.533 6.533 0 0 1 0.85 0.352l1.054-0.674a1.38 1.38 0 0 1 0.688-0.212 0.847 0.847 0 0 1 0.674 0.256l0.66 0.66a0.766 0.766 0 0 1 0.234 0.658 1.55 1.55 0 0 1-0.235 0.674l-0.644 1.084c0.068 0.137 0.134 0.276 0.198 0.418 0.063 0.141 0.114 0.29 0.153 0.446l1.201 0.264zm0 1.86 0.014-0.836a0.515 0.515 0 0 0-0.205-0.102l-1.743-0.396-0.161-0.512a2.474 2.474 0 0 0-0.117-0.352 4.109 4.109 0 0 0-0.176-0.366l-0.235-0.469 0.923-1.538a0.474 0.474 0 0 0 0.066-0.117 0.28 0.28 0 0 0 0.022-0.088l-0.615-0.6a0.348 0.348 0 0 0-0.19 0.058l-1.51 0.967-0.483-0.25a11.505 11.505 0 0 0-0.351-0.168 1.904 1.904 0 0 0-0.366-0.124l-0.513-0.176-0.381-1.772a0.431 0.431 0 0 0-0.044-0.11l-0.03-0.051h-0.864a0.34 0.34 0 0 0-0.058 0.087 0.52 0.52 0 0 0-0.044 0.147l-0.425 1.7-0.498 0.16a4.51 4.51 0 0 0-0.762 0.322l-0.483 0.25-1.567-0.997-0.074-0.036a0.671 0.671 0 0 0-0.088-0.037l-0.615 0.615c0 0.03 8e-3 0.064 0.022 0.103a0.898 0.898 0 0 0 0.066 0.132l0.952 1.582-0.234 0.454a8.76 8.76 0 0 0-0.154 0.351 2.79 2.79 0 0 0-0.11 0.323l-0.16 0.512-1.773 0.396a0.537 0.537 0 0 0-0.096 0.044 0.199 0.199 0 0 1-0.066 0.03v0.863c0.02 0.02 0.05 0.037 0.088 0.052a0.81 0.81 0 0 0 0.147 0.036l1.714 0.44 0.16 0.498a3.144 3.144 0 0 0 0.265 0.615l0.22 0.454-0.953 1.597a0.474 0.474 0 0 0-0.066 0.117 0.298 0.298 0 0 0-0.022 0.103l0.615 0.6c0.03 0 0.062-7e-3 0.096-0.022a0.59 0.59 0 0 0 0.095-0.051l1.538-0.982 0.483 0.25a4.51 4.51 0 0 0 0.762 0.322l0.498 0.16 0.44 1.73c0.01 0.048 0.022 0.09 0.036 0.124a0.254 0.254 0 0 0 0.051 0.08h0.85a0.515 0.515 0 0 0 0.103-0.19l0.38-1.743 0.513-0.176a5.14 5.14 0 0 0 0.703-0.293l0.484-0.249 1.538 0.982 0.073 0.036a0.72 0.72 0 0 0 0.088 0.037l0.615-0.615a0.298 0.298 0 0 0-0.022-0.103 0.826 0.826 0 0 0-0.066-0.132l-0.923-1.523 0.235-0.469c0.058-0.107 0.11-0.217 0.154-0.33 0.044-0.112 0.085-0.227 0.124-0.344l0.161-0.483 1.743-0.44a0.635 0.635 0 0 0 0.125-0.036 0.254 0.254 0 0 0 0.08-0.052zm-6.563-3.253c0.781 0 1.448 0.273 2 0.82a2.7 2.7 0 0 1 0.827 1.992 2.7 2.7 0 0 1-0.827 1.992 2.737 2.737 0 0 1-2 0.82 2.72 2.72 0 0 1-1.985-0.82 2.7 2.7 0 0 1-0.828-1.992 2.7 2.7 0 0 1 0.828-1.992 2.72 2.72 0 0 1 1.985-0.82zm0 4.687c0.518 0 0.96-0.183 1.326-0.55 0.366-0.366 0.549-0.807 0.549-1.325s-0.183-0.96-0.55-1.326a1.806 1.806 0 0 0-1.325-0.549c-0.518 0-0.96 0.183-1.326 0.55a1.804 1.804 0 0 0-0.549 1.325c0 0.518 0.183 0.96 0.55 1.326 0.366 0.366 0.807 0.549 1.325 0.549z" fill="#8b9396"/>
 </g>
 <g transform="matrix(1.0236 0 0 1.1078 -22.981 1.8897)" shape-rendering="auto" stroke="#000" stroke-linecap="round" stroke-linejoin="round">
  <path d="m17.271 6.5669c-0.18873 0.00801-0.39776 0.049673-0.5544 0.015695l-13.848 0.00775c-1.1927 0.75222-1.7598 1.5332-2.4691 2.6641 0.013376 1.7297-0.021186 3.4653 0.023316 5.192 0.40223 1.1469 1.154 1.889 2.3775 2.6742 1.3625 0.05221 2.744 0.0039 4.1133 0.01824 3.567-0.01064 7.1383 0.01354 10.702-0.01885 0.18124-0.34136 0.04414-0.77722 0.08622-1.1595l-0.0051-9.2143c-0.07067-0.16295-0.23804-0.18727-0.42677-0.17933z" color="#000000" color-rendering="auto" dominant-baseline="auto" fill="none" image-rendering="auto" solid-color="#000000" stroke-width="1.3078" style="font-feature-settings:normal;font-variant-alternates:normal;font-variant-caps:normal;font-variant-ligatures:normal;font-variant-numeric:normal;font-variant-position:normal;isolation:auto;mix-blend-mode:normal;shape-padding:0;text-decoration-color:#000000;text-decoration-line:none;text-decoration-style:solid;text-indent:0;text-orientation:mixed;text-transform:none;white-space:normal"/>
  <path d="m2.6908 11.057c-0.93324 0.0076-1.1955 1.2906-0.42117 1.6872 0.59312 0.35542 1.3598-0.19716 1.3049-0.78884-0.30556-0.09905-0.61671-0.61819-0.91623-0.26325 0.25209-5.27e-4 0.53797 0.26157 0.79005 0.26097 0.36038-0.20381-0.27714-0.97925-0.75761-0.89614z" color="#000000" color-rendering="auto" dominant-baseline="auto" image-rendering="auto" solid-color="#000000" stroke-width="1.2144" style="font-feature-settings:normal;font-variant-alternates:normal;font-variant-caps:normal;font-variant-ligatures:normal;font-variant-numeric:normal;font-variant-position:normal;isolation:auto;mix-blend-mode:normal;shape-padding:0;text-decoration-color:#000000;text-decoration-line:none;text-decoration-style:solid;text-indent:0;text-orientation:mixed;text-transform:none;white-space:normal"/>
  <path d="m19.348 0.38073c-5.1593 0.60645-10.338 1.1827-15.5 1.7966-1.134 1.103-1.3533 1.9162-1.3684 2.8713-0.075262 0.1344 0.16143 0.046122 0.16143 0.046122 0.25145-1.6751 0.39515-1.4627 1.4376-2.6868l15.165-1.8483c0.22147 2.2233 0.41542 4.5263 0.63435 6.7494 0.07574 0.7707 0.21287 1.6228 0.28856 2.3935-0.28721-0.02746-0.8999-0.00657-0.6415 0.24736 0 0 0.72327 0.061872 0.88577-0.14778-0.1804-2.1955-0.42288-4.3954-0.62959-6.5922-0.10344-0.92003-0.15606-1.8522-0.29023-2.7652-0.02969-0.044837-0.08649-0.068709-0.14311-0.064053z" color="#000000" color-rendering="auto" dominant-baseline="auto" image-rendering="auto" solid-color="#000000" stroke-width="1.2144" style="font-feature-settings:normal;font-variant-alternates:normal;font-variant-caps:normal;font-variant-ligatures:normal;font-variant-numeric:normal;font-variant-position:normal;isolation:auto;mix-blend-mode:normal;shape-padding:0;text-decoration-color:#000000;text-decoration-line:none;text-decoration-style:solid;text-indent:0;text-orientation:mixed;text-transform:none;white-space:normal"/>
 </g>
 <g transform="matrix(2.4874 0 0 1.9868 2.8977 .3041)" fill="none" stroke="#000" stroke-linecap="round" stroke-linejoin="round" stroke-width=".58478">
  <path d="m6.5449 0.73798v0.93239"/>
  <path d="m0.21299 1.6704v-0.93239"/>
  <path d="m0.21299 0.73798c0.52766-0.01075 1.0553-0.019055 1.583-0.024727 0.26383-0.00287 0.49798-0.4993 0.76181-0.5008 0.26383-0.00151 0.52766-0.00229 0.79149-0.00244 0.26383-1.205e-4 0.52766 4.618e-4 0.79149 0.00179 0.26383 0.00129 0.55734 0.49762 0.82118 0.50039 0.52766 0.00552 1.0553 0.014099 1.583 0.025803" style="paint-order:stroke markers fill"/>
  <path d="m1.6229 3.754 0.04342 5.7625"/>
  <path d="m5.1833 3.6763-0.04342 5.82"/>
  <path d="m0.21299 1.6704c2.1107-0.042999 4.2213-0.046837 6.332 0" style="paint-order:stroke markers fill"/>
  <path d="m0.38055 2.6468-0.085069-0.081039 0.39268 0.00929 5.8378-0.059885 0.00138 0.92119 0.00274 1.8424 0.00138 0.92119 0.00549 3.6848-0.32736 0.33882-0.31088 0.243-0.25995 0.09979-0.24347 0.0041-2.0036-0.0032-1.758 0.0032-0.3676-0.0042-0.37642-0.14321-0.3551-0.23749-0.31731-0.4217 0.0079-3.6243 0.00198-0.90609 0.00197-0.90609 0.052401-1.3112 0.013965-0.45036z" style="paint-order:stroke markers fill"/>
 </g>
</svg>
