<?xml version="1.0" encoding="UTF-8"?>
<svg width="22" height="22" version="1.1" viewBox="0 0 22 22" xmlns="http://www.w3.org/2000/svg" xmlns:cc="http://creativecommons.org/ns#" xmlns:dc="http://purl.org/dc/elements/1.1/" xmlns:rdf="http://www.w3.org/1999/02/22-rdf-syntax-ns#">
 <metadata>
  <rdf:RDF>
   <cc:Work rdf:about="">
    <dc:format>image/svg+xml</dc:format>
    <dc:type rdf:resource="http://purl.org/dc/dcmitype/StillImage"/>
    <dc:title/>
   </cc:Work>
  </rdf:RDF>
 </metadata>
 <g transform="matrix(2.1703 0 0 1.7724 3.9588 1.4284)" fill="none" stroke="#000" stroke-linecap="round" stroke-linejoin="round" stroke-width=".46806">
  <path d="m6.5449 0.73798v0.93239"/>
  <path d="m0.21299 1.6704v-0.93239"/>
  <path d="m0.21299 0.73798c0.52766-0.01075 1.0553-0.019055 1.583-0.024727 0.26383-0.00287 0.49798-0.4993 0.76181-0.5008 0.26383-0.00151 0.52766-0.00229 0.79149-0.00244 0.26383-1.205e-4 0.52766 4.618e-4 0.79149 0.00179 0.26383 0.00129 0.55734 0.49762 0.82118 0.50039 0.52766 0.00552 1.0553 0.014099 1.583 0.025803" style="paint-order:stroke markers fill"/>
  <path d="m1.6229 3.1216 0.04342 6.3949"/>
  <path d="m5.1833 3.0353-0.04342 6.4588"/>
  <path d="m0.21299 1.6704c2.1107-0.042999 4.2213-0.046837 6.332 0" style="paint-order:stroke markers fill"/>
  <path d="m0.38055 2.3937-0.085069-0.083628 0.39268 0.00959 5.8378-0.061798 0.00138 0.95062 0.00274 1.9012 0.00138 0.95062 0.00549 3.8025-0.32736 0.34964-0.31088 0.25076-0.25995 0.10298-0.24347 0.0042-2.0036-0.0033-1.758 0.0033-0.3676-0.0043-0.37642-0.14778-0.3551-0.24508-0.31731-0.43517 0.0079-3.7401 0.00198-0.93503 0.00197-0.93503 0.052401-1.3531 0.013965-0.46475z" style="paint-order:stroke markers fill"/>
 </g>
</svg>
