<?xml version="1.0" encoding="UTF-8"?>
<svg width="22" height="22" version="1.1" viewBox="0 0 22 22" xmlns="http://www.w3.org/2000/svg" xmlns:cc="http://creativecommons.org/ns#" xmlns:dc="http://purl.org/dc/elements/1.1/" xmlns:rdf="http://www.w3.org/1999/02/22-rdf-syntax-ns#">
 <metadata>
  <rdf:RDF>
   <cc:Work rdf:about="">
    <dc:format>image/svg+xml</dc:format>
    <dc:type rdf:resource="http://purl.org/dc/dcmitype/StillImage"/>
    <dc:title/>
   </cc:Work>
  </rdf:RDF>
 </metadata>
 <g transform="translate(21.86 .23305)" fill="none" fill-rule="evenodd">
  <path d="m0 0h22v22h-22z"/>
  <path d="m4.157 3.07c-0.634 0-1.157 0.522-1.157 1.156v5.012c0 0.635 0.523 1.157 1.157 1.157h5.012c0.634 0 1.156-0.522 1.156-1.157v-5.012c0-0.634-0.522-1.156-1.156-1.156zm8.482 0c-0.635 0-1.157 0.522-1.157 1.156v5.012c0 0.635 0.522 1.157 1.157 1.157h5.012c0.634 0 1.156-0.522 1.156-1.157v-5.012c0-0.634-0.522-1.156-1.156-1.156zm-8.482 0.77h5.012c0.22 0 0.385 0.166 0.385 0.386v5.012c0 0.22-0.165 0.386-0.385 0.386h-5.012a0.377 0.377 0 0 1-0.386-0.386v-5.012c0-0.22 0.165-0.385 0.386-0.385zm8.482 0h5.012c0.22 0 0.385 0.166 0.385 0.386v5.012c0 0.22-0.165 0.386-0.385 0.386h-5.012a0.377 0.377 0 0 1-0.386-0.386v-5.012c0-0.22 0.165-0.385 0.386-0.385zm2.463 7.706a0.386 0.386 0 0 0-0.343 0.391v2.892h-2.892a0.386 0.386 0 1 0 0 0.77h2.892v2.893a0.386 0.386 0 1 0 0.771 0v-2.892h2.892a0.386 0.386 0 1 0 0-0.771h-2.892v-2.892a0.386 0.386 0 0 0-0.428-0.391zm-10.945 6e-3c-0.634 0-1.157 0.522-1.157 1.156v5.012c0 0.635 0.523 1.157 1.157 1.157h5.012c0.634 0 1.156-0.522 1.156-1.157v-5.012c0-0.634-0.522-1.156-1.156-1.156zm0 0.77h5.012c0.22 0 0.385 0.166 0.385 0.386v5.012c0 0.22-0.165 0.386-0.385 0.386h-5.012a0.377 0.377 0 0 1-0.386-0.386v-5.012c0-0.22 0.165-0.385 0.386-0.385z" fill="#8b9396" fill-rule="nonzero"/>
 </g>
 <g>
  <path d="m7.1727 2.8146h7.0148c1.5644 0 2.1317 0.16725 2.7038 0.48104a3.189 3.2725 0 0 1 1.3267 1.3614c0.30556 0.58707 0.46854 1.1694 0.46854 2.7746v7.1985c0 1.6054-0.16298 2.1875-0.46876 2.7746a3.189 3.2725 0 0 1-1.3267 1.3614c-0.57208 0.31357-1.1395 0.48082-2.7038 0.48082h-7.0148c-1.5644 0-2.1317-0.16725-2.7038-0.48104a3.189 3.2725 0 0 1-1.3267-1.3614c-0.30556-0.58706-0.46854-1.1694-0.46854-2.7746v-7.1985c0-1.6054 0.16298-2.1875 0.46876-2.7746a3.189 3.2725 0 0 1 1.3267-1.3614c0.57208-0.31357 1.1396-0.48082 2.7038-0.48082z" fill="#fff" fill-rule="evenodd" stroke="#8b9396" stroke-width=".7"/>
  <path d="m15.039 15.16c-6.2588 0.13192-9.4054-0.2201-9.4054-0.2201-1.5594-0.37844-1.9065-1.5778-1.703-2.448 0.19402-0.70258 0.51247-1.1691 0.94049-1.4392 0.42802-0.27009 1.1442-0.43537 1.7764-0.35218-0.85823-5.1092 4.991-5.7311 6.3097-1.9458 0.8808-1.0517 2.3156-0.54302 2.2232-0.57089 0.41399 0.16208 0.95656 0.55299 1.2086 1.1956 0.252 0.6426 0.1472 1.54-0.27071 2.355 1.3868 1.2763 0.40905 3.4868-1.0792 3.4256z" fill="none" stroke="#8b9396" stroke-linecap="round" stroke-linejoin="round" stroke-width=".7"/>
  <g transform="matrix(.18088 0 0 .17529 -33.842 1.5761)" stroke-width="3.9312">
   <rect transform="matrix(.80729 .59016 -.81459 .58004 0 0)" x="195.32" y="-109.41" width="17.666" height="16.86" fill="none" stroke="#8b9396" stroke-width="4.0354"/>
  </g>
  <rect transform="matrix(.81598 .57809 -.82306 .56796 0 0)" x="14.809" y="1.5604" width="3.1614" height="3.0183" fill="#fff" stroke="#8b9396" stroke-width=".72229"/>
 </g>
</svg>
